<svg xmlns="http://www.w3.org/2000/svg" width="18.305" height="18.305" viewBox="0 0 18.305 18.305"><defs><style>.a{fill:#ff8373;}</style></defs><path class="a" d="M11-17.4a8.983,8.983,0,0,1,4.6,1.225,9.058,9.058,0,0,1,3.33,3.33,8.983,8.983,0,0,1,1.225,4.6,8.983,8.983,0,0,1-1.225,4.6A9.058,9.058,0,0,1,15.6-.322,8.983,8.983,0,0,1,11,.9,8.983,8.983,0,0,1,6.4-.322a9.058,9.058,0,0,1-3.33-3.33,8.983,8.983,0,0,1-1.225-4.6,8.983,8.983,0,0,1,1.225-4.6,9.058,9.058,0,0,1,3.33-3.33A8.983,8.983,0,0,1,11-17.4Zm3.309,4.555L11-9.539,7.691-12.848,6.4-11.559,9.711-8.25,6.4-4.941,7.691-3.652,11-6.961l3.309,3.309L15.6-4.941,12.289-8.25,15.6-11.559Z" transform="translate(-1.848 17.402)"/></svg>