<svg xmlns="http://www.w3.org/2000/svg" width="18.305" height="18.305" viewBox="0 0 18.305 18.305"><defs><style>.a{fill:#6cd994;}</style></defs><path class="a" d="M11-17.4a8.983,8.983,0,0,0-4.6,1.225,9.058,9.058,0,0,0-3.33,3.33,8.983,8.983,0,0,0-1.225,4.6,8.983,8.983,0,0,0,1.225,4.6A9.058,9.058,0,0,0,6.4-.322,8.983,8.983,0,0,0,11,.9,8.983,8.983,0,0,0,15.6-.322a9.058,9.058,0,0,0,3.33-3.33,8.983,8.983,0,0,0,1.225-4.6,8.983,8.983,0,0,0-1.225-4.6,9.058,9.058,0,0,0-3.33-3.33A8.983,8.983,0,0,0,11-17.4ZM9.152-3.652,4.6-8.25,5.887-9.539,9.152-6.273l6.961-6.961L17.4-11.9Z" transform="translate(-1.848 17.402)"/></svg>